<?xml version="1.0" encoding="UTF-8"?>
<svg width="400px" height="150px" viewBox="0 0 400 150" version="1.1" xmlns="http://www.w3.org/2000/svg" xmlns:xlink="http://www.w3.org/1999/xlink">
    <!-- Generator: Sketch 52.2 (67145) - http://www.bohemiancoding.com/sketch -->
    <title>logo-labs-light</title>
    <desc>Created with Sketch.</desc>
    <g id="logo-labs-light" stroke="none" stroke-width="1" fill="none" fill-rule="evenodd">
        <path d="M110.48,25 L110.48,91.4 L96,91.4 L96,25 L110.48,25 Z M133.84,70.76 C133.84,72.09334 134.079998,73.3333276 134.56,74.48 C135.040002,75.6266724 135.693329,76.6266624 136.52,77.48 C137.346671,78.3333376 138.333328,78.9999976 139.48,79.48 C140.626672,79.9600024 141.86666,80.2 143.2,80.2 C144.480006,80.2 145.693328,79.9600024 146.84,79.48 C147.986672,78.9999976 148.973329,78.3333376 149.8,77.48 C150.626671,76.6266624 151.293331,75.6400056 151.8,74.52 C152.306669,73.3999944 152.56,72.2000064 152.56,70.92 C152.56,69.6399936 152.306669,68.4266724 151.8,67.28 C151.293331,66.1333276 150.626671,65.1333376 149.8,64.28 C148.973329,63.4266624 147.986672,62.7600024 146.84,62.28 C145.693328,61.7999976 144.480006,61.56 143.2,61.56 C141.86666,61.56 140.626672,61.7999976 139.48,62.28 C138.333328,62.7600024 137.346671,63.4266624 136.52,64.28 C135.693329,65.1333376 135.040002,66.1066612 134.56,67.2 C134.079998,68.2933388 133.84,69.4799936 133.84,70.76 Z M152.08,50.36 L166.64,50.36 L166.64,91.4 L152.08,91.4 L152.08,86.84 C148.986651,90.7333528 144.800026,92.68 139.52,92.68 C136.533318,92.68 133.786679,92.1333388 131.28,91.04 C128.773321,89.9466612 126.586676,88.4133432 124.72,86.44 C122.853324,84.4666568 121.400005,82.14668 120.36,79.48 C119.319995,76.81332 118.8,73.9066824 118.8,70.76 C118.8,67.826652 119.306662,65.0400132 120.32,62.4 C121.333338,59.7599868 122.746658,57.4533432 124.56,55.48 C126.373342,53.5066568 128.533321,51.9466724 131.04,50.8 C133.546679,49.6533276 136.319985,49.08 139.36,49.08 C144.480026,49.08 148.719983,50.8666488 152.08,54.44 L152.08,50.36 Z M209.2,71 C209.2,69.7199936 208.960002,68.5066724 208.48,67.36 C207.999998,66.2133276 207.333338,65.2133376 206.48,64.36 C205.626662,63.5066624 204.640006,62.8266692 203.52,62.32 C202.399994,61.8133308 201.17334,61.56 199.84,61.56 C198.559994,61.56 197.360006,61.7999976 196.24,62.28 C195.119994,62.7600024 194.146671,63.4266624 193.32,64.28 C192.493329,65.1333376 191.826669,66.1333276 191.32,67.28 C190.813331,68.4266724 190.56,69.6399936 190.56,70.92 C190.56,72.2000064 190.799998,73.3999944 191.28,74.52 C191.760002,75.6400056 192.426662,76.6133292 193.28,77.44 C194.133338,78.2666708 195.133328,78.9333308 196.28,79.44 C197.426672,79.9466692 198.639994,80.2 199.92,80.2 C201.200006,80.2 202.399994,79.9600024 203.52,79.48 C204.640006,78.9999976 205.613329,78.3333376 206.44,77.48 C207.266671,76.6266624 207.933331,75.6400056 208.44,74.52 C208.946669,73.3999944 209.2,72.2266728 209.2,71 Z M190.96,25 L190.96,54.44 C194.37335,50.8666488 198.639974,49.08 203.76,49.08 C206.800015,49.08 209.586654,49.6533276 212.12,50.8 C214.653346,51.9466724 216.813324,53.4933236 218.6,55.44 C220.386676,57.3866764 221.786662,59.6799868 222.8,62.32 C223.813338,64.9600132 224.32,67.7733184 224.32,70.76 C224.32,73.8000152 223.800005,76.65332 222.76,79.32 C221.719995,81.98668 220.266676,84.3066568 218.4,86.28 C216.533324,88.2533432 214.333346,89.8133276 211.8,90.96 C209.266654,92.1066724 206.533348,92.68 203.6,92.68 C198.26664,92.68 194.053349,90.7333528 190.96,86.84 L190.96,91.4 L176.48,91.4 L176.48,25 L190.96,25 Z M259.76,60.92 C257.09332,59.5333264 254.480013,58.84 251.92,58.84 C250.58666,58.84 249.506671,59.106664 248.68,59.64 C247.853329,60.173336 247.44,60.8933288 247.44,61.8 C247.44,62.2800024 247.506666,62.6666652 247.64,62.96 C247.773334,63.2533348 248.066664,63.533332 248.52,63.8 C248.973336,64.066668 249.639996,64.3066656 250.52,64.52 C251.400004,64.7333344 252.559993,64.9999984 254,65.32 C258.00002,66.120004 260.986657,67.5466564 262.96,69.6 C264.933343,71.6533436 265.92,74.279984 265.92,77.48 C265.92,79.880012 265.440005,82.0399904 264.48,83.96 C263.519995,85.8800096 262.186675,87.4933268 260.48,88.8 C258.773325,90.1066732 256.720012,91.1199964 254.32,91.84 C251.919988,92.5600036 249.280014,92.92 246.4,92.92 C240.853306,92.92 235.386694,91.3466824 230,88.2 L235.28,77.96 C239.333354,80.7333472 243.173315,82.12 246.8,82.12 C248.13334,82.12 249.226662,81.8266696 250.08,81.24 C250.933338,80.6533304 251.36,79.9066712 251.36,79 C251.36,78.466664 251.293334,78.0266684 251.16,77.68 C251.026666,77.3333316 250.746669,77.0133348 250.32,76.72 C249.893331,76.4266652 249.266671,76.1600012 248.44,75.92 C247.613329,75.6799988 246.53334,75.426668 245.2,75.16 C240.719978,74.2533288 237.586676,72.9066756 235.8,71.12 C234.013324,69.3333244 233.12,66.8666824 233.12,63.72 C233.12,61.4266552 233.546662,59.3600092 234.4,57.52 C235.253338,55.6799908 236.479992,54.1200064 238.08,52.84 C239.680008,51.5599936 241.613322,50.5733368 243.88,49.88 C246.146678,49.1866632 248.666653,48.84 251.44,48.84 C255.973356,48.84 260.373312,49.7199912 264.64,51.48 L259.76,60.92 Z" id="labs" fill="#3BBF45"></path>
        <g id="logo-light" transform="translate(177.000000, 82.000000)">
            <path d="M12.967275,19.9210667 L12.967275,33.1227507 C12.967275,36.7830752 10.2526471,38.7538525 7.07873469,38.7538525 L6.15002229,38.7538525 L6.15002229,34.776062 L7.07873469,34.6492531 C7.99682484,34.6492531 8.514675,34.0480667 8.514675,33.1227507 C8.514675,32.3076402 8.514675,27.9070789 8.514675,19.9210667 L12.967275,19.9210667 Z M20.236575,26.1525333 C20.236575,26.5777799 20.3144742,26.9662205 20.470275,27.3178667 C20.6260758,27.6695129 20.8310737,27.9761765 21.085275,28.2378667 C21.3394763,28.4995569 21.6428732,28.7039993 21.995475,28.8512 C22.3480768,28.9984007 22.721173,29.072 23.114775,29.072 C23.508377,29.072 23.8814732,28.9984007 24.234075,28.8512 C24.5866768,28.7039993 24.8900737,28.4995569 25.144275,28.2378667 C25.3984763,27.9761765 25.6034742,27.6695129 25.759275,27.3178667 C25.9150758,26.9662205 25.992975,26.5859576 25.992975,26.1770667 C25.992975,25.7845314 25.9150758,25.4124462 25.759275,25.0608 C25.6034742,24.7091538 25.3984763,24.4024902 25.144275,24.1408 C24.8900737,23.8791098 24.5866768,23.6746674 24.234075,23.5274667 C23.8814732,23.3802659 23.508377,23.3066667 23.114775,23.3066667 C22.721173,23.3066667 22.3480768,23.3802659 21.995475,23.5274667 C21.6428732,23.6746674 21.3394763,23.8791098 21.085275,24.1408 C20.8310737,24.4024902 20.6260758,24.7050649 20.470275,25.0485333 C20.3144742,25.3920017 20.236575,25.759998 20.236575,26.1525333 Z M15.537975,26.1034667 C15.537975,25.1711953 15.7265731,24.3002707 16.103775,23.4906667 C16.4809769,22.6810626 17.0057716,21.9777808 17.678175,21.3808 C18.3505784,20.7838192 19.1500704,20.3136017 20.076675,19.9701333 C21.0032796,19.6266649 22.0159695,19.4549333 23.114775,19.4549333 C24.1971804,19.4549333 25.2016704,19.6225761 26.128275,19.9578667 C27.0548796,20.2931572 27.8584716,20.7592859 28.539075,21.3562667 C29.2196784,21.9532474 29.7485731,22.664707 30.125775,23.4906667 C30.5029769,24.3166264 30.691575,25.2284395 30.691575,26.2261333 C30.691575,27.2238272 30.4988769,28.1356403 30.113475,28.9616 C29.7280731,29.7875597 29.1991784,30.4990192 28.526775,31.096 C27.8543716,31.6929808 27.0466797,32.1550206 26.103675,32.4821333 C25.1606703,32.8092461 24.1397805,32.9728 23.040975,32.9728 C21.9585696,32.9728 20.9581796,32.8092461 20.039775,32.4821333 C19.1213704,32.1550206 18.3300783,31.6888919 17.665875,31.0837333 C17.0016717,30.4785748 16.4809769,29.7548487 16.103775,28.9125333 C15.7265731,28.070218 15.537975,27.1338718 15.537975,26.1034667 Z M41.626275,23.1594667 C40.8062709,22.7342201 40.0026789,22.5216 39.215475,22.5216 C38.805473,22.5216 38.4733763,22.603377 38.219175,22.7669333 C37.9649737,22.9304897 37.837875,23.1512875 37.837875,23.4293333 C37.837875,23.5765341 37.8583748,23.6951107 37.899375,23.7850667 C37.9403752,23.8750227 38.0305743,23.9608885 38.169975,24.0426667 C38.3093757,24.1244449 38.5143736,24.1980441 38.784975,24.2634667 C39.0555764,24.3288892 39.4122728,24.4106662 39.855075,24.5088 C41.0850812,24.7541346 42.003472,25.1916413 42.610275,25.8213333 C43.217078,26.4510254 43.520475,27.2565284 43.520475,28.2378667 C43.520475,28.9738703 43.3728765,29.6362637 43.077675,30.2250667 C42.7824735,30.8138696 42.3724776,31.3086202 41.847675,31.7093333 C41.3228724,32.1100464 40.6914787,32.4207989 39.953475,32.6416 C39.2154713,32.8624011 38.4036794,32.9728 37.518075,32.9728 C35.8124665,32.9728 34.1314833,32.4903159 32.475075,31.5253333 L34.098675,28.3850667 C35.3450812,29.2355598 36.5258694,29.6608 37.641075,29.6608 C38.0510771,29.6608 38.3872737,29.5708453 38.649675,29.3909333 C38.9120763,29.2110213 39.043275,28.9820458 39.043275,28.704 C39.043275,28.5404436 39.0227752,28.4055116 38.981775,28.2992 C38.9407748,28.1928884 38.8546757,28.094756 38.723475,28.0048 C38.5922743,27.914844 38.3995763,27.833067 38.145375,27.7594667 C37.8911737,27.6858663 37.5590771,27.6081782 37.149075,27.5264 C35.7714681,27.2483542 34.8079777,26.8353805 34.258575,26.2874667 C33.7091723,25.7395528 33.434475,24.9831159 33.434475,24.0181333 C33.434475,23.3148409 33.5656737,22.6810695 33.828075,22.1168 C34.0904763,21.5525305 34.4676725,21.0741353 34.959675,20.6816 C35.4516775,20.2890647 36.0461715,19.98649 36.743175,19.7738667 C37.4401785,19.5612434 38.2150707,19.4549333 39.067875,19.4549333 C40.461882,19.4549333 41.8148684,19.7247973 43.126875,20.2645333 L41.626275,23.1594667 Z M45.795975,12.144 L50.248575,12.144 L50.248575,21.5157333 C50.855378,20.7797297 51.4703719,20.284979 52.093575,20.0314667 C52.7167781,19.7779543 53.4465708,19.6512 54.282975,19.6512 C55.873783,19.6512 57.0750709,20.0887067 57.886875,20.9637333 C58.6986791,21.8387599 59.104575,23.020437 59.104575,24.5088 L59.104575,32.5066667 L54.651975,32.5066667 L54.651975,26.1525333 C54.651975,25.5146635 54.6027755,24.9994686 54.504375,24.6069333 C54.4059745,24.214398 54.2419761,23.9118233 54.012375,23.6992 C53.618773,23.3557316 53.1431778,23.184 52.585575,23.184 C51.8311712,23.184 51.253077,23.4088866 50.851275,23.8586667 C50.449473,24.3084467 50.248575,24.9503958 50.248575,25.7845333 L50.248575,32.5066667 L45.795975,32.5066667 L45.795975,12.144 Z M66.275475,26.1525333 C66.275475,26.5614243 66.3492743,26.9416871 66.496875,27.2933333 C66.6444757,27.6449795 66.8453737,27.9516431 67.099575,28.2133333 C67.3537763,28.4750235 67.6571732,28.6794659 68.009775,28.8266667 C68.3623768,28.9738674 68.743673,29.0474667 69.153675,29.0474667 C69.547277,29.0474667 69.9203732,28.9738674 70.272975,28.8266667 C70.6255768,28.6794659 70.9289737,28.4750235 71.183175,28.2133333 C71.4373763,27.9516431 71.6423742,27.6449795 71.798175,27.2933333 C71.9539758,26.9416871 72.031875,26.569602 72.031875,26.1770667 C72.031875,25.7681757 71.9539758,25.3920017 71.798175,25.0485333 C71.6423742,24.7050649 71.4332763,24.4024902 71.170875,24.1408 C70.9084737,23.8791098 70.6009768,23.6746674 70.248375,23.5274667 C69.8957732,23.3802659 69.5308769,23.3066667 69.153675,23.3066667 C68.760073,23.3066667 68.3910767,23.3843548 68.046675,23.5397333 C67.7022733,23.6951119 67.3988763,23.8995543 67.136475,24.1530667 C66.8740737,24.406579 66.6649758,24.7050649 66.509175,25.0485333 C66.3533742,25.3920017 66.275475,25.759998 66.275475,26.1525333 Z M76.263075,19.9210667 L76.263075,31.648 C76.263075,32.3512924 76.2220754,32.980975 76.140075,33.5370667 C76.0580746,34.0931583 75.9432757,34.5838201 75.795675,35.0090667 C75.598874,35.5488027 75.2913771,36.051731 74.873175,36.5178667 C74.4549729,36.9840023 73.950678,37.3887983 73.360275,37.7322667 C72.769872,38.0757351 72.1015787,38.345599 71.355375,38.5418667 C70.6091713,38.7381343 69.8014793,38.8362667 68.932275,38.8362667 C67.9482701,38.8362667 67.0462791,38.7136012 66.226275,38.4682667 C65.4062709,38.2229321 64.6887781,37.8835577 64.073775,37.4501333 C63.4587719,37.0167089 62.954477,36.5096918 62.560875,35.9290667 C62.167273,35.3484415 61.9048757,34.7146701 61.773675,34.0277333 L66.792075,34.0277333 C67.1036766,34.8618708 67.8088695,35.2789333 68.907675,35.2789333 C69.8424797,35.2789333 70.5599725,35.0172471 71.060175,34.4938667 C71.5603775,33.9704863 71.810475,33.2426713 71.810475,32.3104 L71.810475,31.1082667 C71.4824734,31.4190238 71.1667765,31.6766212 70.863375,31.8810667 C70.5599735,32.0855121 70.2524766,32.2531549 69.940875,32.384 C69.6292734,32.5148451 69.3012767,32.6088886 68.956875,32.6661333 C68.6124733,32.7233781 68.235277,32.752 67.825275,32.752 C66.9232705,32.752 66.0950788,32.5966238 65.340675,32.2858667 C64.5862712,31.9751096 63.9343777,31.5416917 63.384975,30.9856 C62.8355723,30.4295083 62.4091765,29.7630261 62.105775,28.9861333 C61.8023735,28.2092406 61.650675,27.3464936 61.650675,26.3978667 C61.650675,25.4328841 61.8146734,24.5374264 62.142675,23.7114667 C62.4706766,22.885507 62.9175722,22.1658697 63.483375,21.5525333 C64.0491778,20.9391969 64.7215711,20.4567129 65.500575,20.1050667 C66.2795789,19.7534205 67.1282704,19.5776 68.046675,19.5776 C69.5390825,19.5776 70.7936699,20.1336833 71.810475,21.2458667 L71.810475,19.9210667 L76.263075,19.9210667 Z M79.743975,19.9210667 L84.196575,19.9210667 L84.196575,21.9818667 C84.6721774,21.2295073 85.2543716,20.6529798 85.943175,20.2522667 C86.6319784,19.8515536 87.4355704,19.6512 88.353975,19.6512 L88.735275,19.6512 C88.8746757,19.6512 89.0345741,19.6675554 89.214975,19.7002667 L89.214975,23.9445333 C88.624572,23.6501319 87.9849784,23.5029333 87.296175,23.5029333 C86.2629698,23.5029333 85.4880776,23.8095969 84.971475,24.4229333 C84.4548724,25.0362697 84.196575,25.9317274 84.196575,27.1093333 L84.196575,32.5066667 L79.743975,32.5066667 L79.743975,19.9210667 Z M95.672475,19.9210667 L95.672475,32.5066667 L91.219875,32.5066667 L91.219875,19.9210667 L95.672475,19.9210667 Z M103.556775,23.6256 L103.556775,32.5066667 L99.104175,32.5066667 L99.104175,23.6256 L97.505175,23.6256 L97.505175,19.9210667 L99.104175,19.9210667 L99.104175,18.032 C99.104175,16.9852392 99.202574,16.1511142 99.399375,15.5296 C99.5633758,15.0062196 99.8257732,14.5196467 100.186575,14.0698667 C100.547377,13.6200866 100.969673,13.2316461 101.453475,12.9045333 C101.937277,12.5774206 102.457972,12.323912 103.015575,12.144 C103.573178,11.964088 104.122572,11.8741333 104.663775,11.8741333 C105.040977,11.8741333 105.389473,11.9150218 105.709275,11.9968 C106.029077,12.0785782 106.352973,12.1930659 106.680975,12.3402667 L106.680975,16.2165333 C106.385774,16.0693326 106.111076,15.9589337 105.856875,15.8853333 C105.602674,15.811733 105.336176,15.7749333 105.057375,15.7749333 C104.876974,15.7749333 104.692476,15.8035553 104.503875,15.8608 C104.315274,15.9180447 104.138976,16.0366213 103.974975,16.2165333 C103.810974,16.3964453 103.700275,16.6540428 103.642875,16.9893333 C103.585475,17.3246239 103.556775,17.778486 103.556775,18.3509333 L103.556775,19.9210667 L106.680975,19.9210667 L106.680975,23.6256 L103.556775,23.6256 Z M113.335275,23.6256 L113.335275,32.5066667 L108.882675,32.5066667 L108.882675,23.6256 L107.406675,23.6256 L107.406675,19.9210667 L108.882675,19.9210667 L108.882675,16.1429333 L113.335275,16.1429333 L113.335275,19.9210667 L115.869075,19.9210667 L115.869075,23.6256 L113.335275,23.6256 Z" id="joshgrift" fill="#21202A" fill-rule="evenodd"></path>
            <ellipse id="Oval" fill="#2196F3" fill-rule="nonzero" cx="10.60875" cy="15.18" rx="2.61375" ry="2.60666667"></ellipse>
            <ellipse id="Oval" fill="#3BBF45" fill-rule="nonzero" cx="93.32625" cy="15.18" rx="2.61375" ry="2.60666667"></ellipse>
        </g>
    </g>
</svg>