<?xml version="1.0" encoding="UTF-8"?>
<svg width="400px" height="150px" viewBox="0 0 400 150" version="1.1" xmlns="http://www.w3.org/2000/svg" xmlns:xlink="http://www.w3.org/1999/xlink">
    <!-- Generator: Sketch 52.2 (67145) - http://www.bohemiancoding.com/sketch -->
    <title>logo-light</title>
    <desc>Created with Sketch.</desc>
    <g id="logo-light" stroke="none" stroke-width="1" fill="none" fill-rule="evenodd">
        <path d="M42.17,64.96 L42.17,108.00897 C42.17,119.94481 33.3419417,126.371258 23.0202754,126.371258 L20.0000725,126.371258 L20.0000725,113.400202 L23.0202754,112.986695 C26.0059344,112.986695 27.69,111.026305 27.69,108.00897 C27.69,105.351001 27.69,91.0013442 27.69,64.96 L42.17,64.96 Z M65.81,85.28 C65.81,86.6666736 66.0633308,87.9333276 66.57,89.08 C67.0766692,90.2266724 67.7433292,91.2266624 68.57,92.08 C69.3966708,92.9333376 70.3833276,93.5999976 71.53,94.08 C72.6766724,94.5600024 73.8899936,94.8 75.17,94.8 C76.4500064,94.8 77.6633276,94.5600024 78.81,94.08 C79.9566724,93.5999976 80.9433292,92.9333376 81.77,92.08 C82.5966708,91.2266624 83.2633308,90.2266724 83.77,89.08 C84.2766692,87.9333276 84.53,86.69334 84.53,85.36 C84.53,84.0799936 84.2766692,82.8666724 83.77,81.72 C83.2633308,80.5733276 82.5966708,79.5733376 81.77,78.72 C80.9433292,77.8666624 79.9566724,77.2000024 78.81,76.72 C77.6633276,76.2399976 76.4500064,76 75.17,76 C73.8899936,76 72.6766724,76.2399976 71.53,76.72 C70.3833276,77.2000024 69.3966708,77.8666624 68.57,78.72 C67.7433292,79.5733376 67.0766692,80.5599944 66.57,81.68 C66.0633308,82.8000056 65.81,83.9999936 65.81,85.28 Z M50.53,85.12 C50.53,82.0799848 51.1433272,79.2400132 52.37,76.6 C53.5966728,73.9599868 55.3033224,71.6666764 57.49,69.72 C59.6766776,67.7733236 62.2766516,66.2400056 65.29,65.12 C68.3033484,63.9999944 71.5966488,63.44 75.17,63.44 C78.6900176,63.44 81.9566516,63.9866612 84.97,65.08 C87.9833484,66.1733388 90.5966556,67.6933236 92.81,69.64 C95.0233444,71.5866764 96.7433272,73.9066532 97.97,76.6 C99.1966728,79.2933468 99.81,82.2666504 99.81,85.52 C99.81,88.7733496 99.1833396,91.7466532 97.93,94.44 C96.6766604,97.1333468 94.9566776,99.4533236 92.77,101.4 C90.5833224,103.346676 87.956682,104.853328 84.89,105.92 C81.823318,106.986672 78.5033512,107.52 74.93,107.52 C71.4099824,107.52 68.1566816,106.986672 65.17,105.92 C62.1833184,104.853328 59.6100108,103.333343 57.45,101.36 C55.2899892,99.3866568 53.5966728,97.0266804 52.37,94.28 C51.1433272,91.5333196 50.53,88.4800168 50.53,85.12 Z M135.37,75.52 C132.70332,74.1333264 130.090013,73.44 127.53,73.44 C126.19666,73.44 125.116671,73.706664 124.29,74.24 C123.463329,74.773336 123.05,75.4933288 123.05,76.4 C123.05,76.8800024 123.116666,77.2666652 123.25,77.56 C123.383334,77.8533348 123.676664,78.133332 124.13,78.4 C124.583336,78.666668 125.249996,78.9066656 126.13,79.12 C127.010004,79.3333344 128.169993,79.5999984 129.61,79.92 C133.61002,80.720004 136.596657,82.1466564 138.57,84.2 C140.543343,86.2533436 141.53,88.879984 141.53,92.08 C141.53,94.480012 141.050005,96.6399904 140.09,98.56 C139.129995,100.48001 137.796675,102.093327 136.09,103.4 C134.383325,104.706673 132.330012,105.719996 129.93,106.44 C127.529988,107.160004 124.890014,107.52 122.01,107.52 C116.463306,107.52 110.996694,105.946682 105.61,102.8 L110.89,92.56 C114.943354,95.3333472 118.783315,96.72 122.41,96.72 C123.74334,96.72 124.836662,96.4266696 125.69,95.84 C126.543338,95.2533304 126.97,94.5066712 126.97,93.6 C126.97,93.066664 126.903334,92.6266684 126.77,92.28 C126.636666,91.9333316 126.356669,91.6133348 125.93,91.32 C125.503331,91.0266652 124.876671,90.7600012 124.05,90.52 C123.223329,90.2799988 122.14334,90.026668 120.81,89.76 C116.329978,88.8533288 113.196676,87.5066756 111.41,85.72 C109.623324,83.9333244 108.73,81.4666824 108.73,78.32 C108.73,76.0266552 109.156662,73.9600092 110.01,72.12 C110.863338,70.2799908 112.089992,68.7200064 113.69,67.44 C115.290008,66.1599936 117.223322,65.1733368 119.49,64.48 C121.756678,63.7866632 124.276653,63.44 127.05,63.44 C131.583356,63.44 135.983312,64.3199912 140.25,66.08 L135.37,75.52 Z M148.93,39.6 L163.41,39.6 L163.41,70.16 C165.383343,67.759988 167.383323,66.1466708 169.41,65.32 C171.436677,64.4933292 173.809986,64.08 176.53,64.08 C181.703359,64.08 185.609987,65.5066524 188.25,68.36 C190.890013,71.2133476 192.21,75.0666424 192.21,79.92 L192.21,106 L177.73,106 L177.73,85.28 C177.73,83.1999896 177.570002,81.5200064 177.25,80.24 C176.929998,78.9599936 176.39667,77.9733368 175.65,77.28 C174.369994,76.1599944 172.823342,75.6 171.01,75.6 C168.556654,75.6 166.676673,76.333326 165.37,77.8 C164.063327,79.266674 163.41,81.3599864 163.41,84.08 L163.41,106 L148.93,106 L148.93,39.6 Z M215.53,85.28 C215.53,86.61334 215.769998,87.8533276 216.25,89 C216.730002,90.1466724 217.383329,91.1466624 218.21,92 C219.036671,92.8533376 220.023328,93.5199976 221.17,94 C222.316672,94.4800024 223.55666,94.72 224.89,94.72 C226.170006,94.72 227.383328,94.4800024 228.53,94 C229.676672,93.5199976 230.663329,92.8533376 231.49,92 C232.316671,91.1466624 232.983331,90.1466724 233.49,89 C233.996669,87.8533276 234.25,86.6400064 234.25,85.36 C234.25,84.02666 233.996669,82.8000056 233.49,81.68 C232.983331,80.5599944 232.303338,79.5733376 231.45,78.72 C230.596662,77.8666624 229.596672,77.2000024 228.45,76.72 C227.303328,76.2399976 226.116673,76 224.89,76 C223.609994,76 222.410006,76.2533308 221.29,76.76 C220.169994,77.2666692 219.183338,77.9333292 218.33,78.76 C217.476662,79.5866708 216.796669,80.5599944 216.29,81.68 C215.783331,82.8000056 215.53,83.9999936 215.53,85.28 Z M248.01,64.96 L248.01,103.2 C248.01,105.493345 247.876668,107.546658 247.61,109.36 C247.343332,111.173342 246.970002,112.773326 246.49,114.16 C245.849997,115.920009 244.850007,117.559992 243.49,119.08 C242.129993,120.600008 240.49001,121.919994 238.57,123.04 C236.64999,124.160006 234.476679,125.039997 232.05,125.68 C229.623321,126.320003 226.996681,126.64 224.17,126.64 C220.969984,126.64 218.03668,126.240004 215.37,125.44 C212.70332,124.639996 210.37001,123.53334 208.37,122.12 C206.36999,120.70666 204.730006,119.053343 203.45,117.16 C202.169994,115.266657 201.316669,113.200011 200.89,110.96 L217.21,110.96 C218.223338,113.680014 220.516649,115.04 224.09,115.04 C227.130015,115.04 229.463325,114.186675 231.09,112.48 C232.716675,110.773325 233.53,108.400015 233.53,105.36 L233.53,101.44 C232.463328,102.453338 231.436672,103.29333 230.45,103.96 C229.463328,104.62667 228.463338,105.173331 227.45,105.6 C226.436662,106.026669 225.370006,106.333332 224.25,106.52 C223.129994,106.706668 221.90334,106.8 220.57,106.8 C217.636652,106.8 214.943346,106.293338 212.49,105.28 C210.036654,104.266662 207.916676,102.853342 206.13,101.04 C204.343324,99.2266576 202.956672,97.053346 201.97,94.52 C200.983328,91.986654 200.49,89.1733488 200.49,86.08 C200.49,82.9333176 201.023328,80.0133468 202.09,77.32 C203.156672,74.6266532 204.609991,72.28001 206.45,70.28 C208.290009,68.27999 210.476654,66.7066724 213.01,65.56 C215.543346,64.4133276 218.303318,63.84 221.29,63.84 C226.143358,63.84 230.223317,65.6533152 233.53,69.28 L233.53,64.96 L248.01,64.96 Z M259.33,64.96 L273.81,64.96 L273.81,71.68 C275.356674,69.2266544 277.249989,67.3466732 279.49,66.04 C281.730011,64.7333268 284.343318,64.08 287.33,64.08 L288.57,64.08 C289.023336,64.08 289.54333,64.1333328 290.13,64.24 L290.13,78.08 C288.20999,77.1199952 286.130011,76.64 283.89,76.64 C280.529983,76.64 278.010008,77.63999 276.33,79.64 C274.649992,81.64001 273.81,84.5599808 273.81,88.4 L273.81,106 L259.33,106 L259.33,64.96 Z M311.13,64.96 L311.13,106 L296.65,106 L296.65,64.96 L311.13,64.96 Z M336.77,77.04 L336.77,106 L322.29,106 L322.29,77.04 L317.09,77.04 L317.09,64.96 L322.29,64.96 L322.29,58.8 C322.29,55.3866496 322.609997,52.6666768 323.25,50.64 C323.783336,48.9333248 324.636661,47.346674 325.81,45.88 C326.983339,44.413326 328.356659,43.146672 329.93,42.08 C331.503341,41.013328 333.196658,40.1866696 335.01,39.6 C336.823342,39.0133304 338.609991,38.72 340.37,38.72 C341.596673,38.72 342.729995,38.853332 343.77,39.12 C344.810005,39.386668 345.863328,39.7599976 346.93,40.24 L346.93,52.88 C345.969995,52.3999976 345.076671,52.0400012 344.25,51.8 C343.423329,51.5599988 342.556671,51.44 341.65,51.44 C341.06333,51.44 340.463336,51.5333324 339.85,51.72 C339.236664,51.9066676 338.663336,52.2933304 338.13,52.88 C337.596664,53.4666696 337.236668,54.3066612 337.05,55.4 C336.863332,56.4933388 336.77,57.973324 336.77,59.84 L336.77,64.96 L346.93,64.96 L346.93,77.04 L336.77,77.04 Z M368.57,77.04 L368.57,106 L354.09,106 L354.09,77.04 L349.29,77.04 L349.29,64.96 L354.09,64.96 L354.09,52.64 L368.57,52.64 L368.57,64.96 L376.81,64.96 L376.81,77.04 L368.57,77.04 Z" id="joshgrift" fill="#21202A"></path>
        <circle id="Oval" fill="#2196F3" fill-rule="nonzero" cx="34.5" cy="49.5" r="8.5"></circle>
        <circle id="Oval" fill="#3BBF45" fill-rule="nonzero" cx="303.5" cy="49.5" r="8.5"></circle>
    </g>
</svg>